<svg width="24" height="24" viewBox="0 0 24 24" fill="none" xmlns="http://www.w3.org/2000/svg">
<path d="M4.16675 13C3.3395 13 2.66675 12.3273 2.66675 11.5C2.66675 11.086 3.00275 10.75 3.41675 10.75C3.83075 10.75 4.16675 11.086 4.16675 11.5V11.5008C4.58075 11.5008 4.91675 11.836 4.91675 12.2504C4.91675 12.6647 4.58075 13 4.16675 13Z" fill="black"/>
<path d="M3.41637 8.5C3.002 8.5 2.66675 8.164 2.66675 7.75C2.66675 6.92275 3.3395 6.25 4.16675 6.25C4.58075 6.25 4.91675 6.586 4.91675 7C4.91675 7.414 4.58075 7.75 4.16675 7.75H4.166C4.166 8.164 3.83075 8.5 3.41637 8.5Z" fill="black"/>
<path d="M21.4167 8.5C21.0027 8.5 20.6667 8.164 20.6667 7.75V7.74925C20.2527 7.74925 19.9167 7.414 19.9167 6.99963C19.9167 6.58525 20.2527 6.25 20.6667 6.25C21.494 6.25 22.1667 6.92275 22.1667 7.75C22.1667 8.164 21.8307 8.5 21.4167 8.5Z" fill="black"/>
<path d="M14.6667 16H10.1667C9.75275 16 9.41675 15.664 9.41675 15.25C9.41675 14.836 9.75275 14.5 10.1667 14.5H14.6667C15.0807 14.5 15.4167 14.836 15.4167 15.25C15.4167 15.664 15.0807 16 14.6667 16Z" fill="black"/>
<path d="M4.91675 21.25C4.0895 21.25 3.41675 20.5772 3.41675 19.75C3.41675 19.336 3.75275 19 4.16675 19C4.58075 19 4.91675 19.336 4.91675 19.75V19.7507C5.33075 19.7507 5.66675 20.086 5.66675 20.5004C5.66675 20.9147 5.33075 21.25 4.91675 21.25Z" fill="black"/>
<path d="M19.9167 21.25C19.5027 21.25 19.1667 20.914 19.1667 20.5C19.1667 20.086 19.5027 19.75 19.9167 19.75H19.9175C19.9175 19.336 20.2527 19 20.6671 19C21.0815 19 21.4167 19.336 21.4167 19.75C21.4167 20.5772 20.744 21.25 19.9167 21.25Z" fill="black"/>
<path d="M20.6667 13H4.16675C3.75275 13 3.41675 12.664 3.41675 12.25C3.41675 11.836 3.75275 11.5 4.16675 11.5H20.6667C21.0807 11.5 21.4167 11.836 21.4167 12.25C21.4167 12.664 21.0807 13 20.6667 13Z" fill="black"/>
<path d="M3.41675 12.25C3.00275 12.25 2.66675 11.914 2.66675 11.5V7.75C2.66675 7.336 3.00275 7 3.41675 7C3.83075 7 4.16675 7.336 4.16675 7.75V11.5C4.16675 11.914 3.83075 12.25 3.41675 12.25Z" fill="black"/>
<path d="M20.6667 7.75H4.16675C3.75275 7.75 3.41675 7.414 3.41675 7C3.41675 6.586 3.75275 6.25 4.16675 6.25H20.6667C21.0807 6.25 21.4167 6.586 21.4167 7C21.4167 7.414 21.0807 7.75 20.6667 7.75Z" fill="black"/>
<path d="M21.4167 12.25C21.0027 12.25 20.6667 11.914 20.6667 11.5V7.75C20.6667 7.336 21.0027 7 21.4167 7C21.8307 7 22.1667 7.336 22.1667 7.75V11.5C22.1667 11.914 21.8307 12.25 21.4167 12.25Z" fill="black"/>
<path d="M10.1667 16C9.75275 16 9.41675 15.664 9.41675 15.25V12.25C9.41675 11.836 9.75275 11.5 10.1667 11.5C10.5807 11.5 10.9167 11.836 10.9167 12.25V15.25C10.9167 15.664 10.5807 16 10.1667 16Z" fill="black"/>
<path d="M14.6667 16C14.2527 16 13.9167 15.664 13.9167 15.25V12.25C13.9167 11.836 14.2527 11.5 14.6667 11.5C15.0807 11.5 15.4167 11.836 15.4167 12.25V15.25C15.4167 15.664 15.0807 16 14.6667 16Z" fill="black"/>
<path d="M4.16675 20.5C3.75275 20.5 3.41675 20.164 3.41675 19.75V12.25C3.41675 11.836 3.75275 11.5 4.16675 11.5C4.58075 11.5 4.91675 11.836 4.91675 12.25V19.75C4.91675 20.164 4.58075 20.5 4.16675 20.5Z" fill="black"/>
<path d="M19.9167 21.25H4.91675C4.50275 21.25 4.16675 20.914 4.16675 20.5C4.16675 20.086 4.50275 19.75 4.91675 19.75H19.9167C20.3307 19.75 20.6667 20.086 20.6667 20.5C20.6667 20.914 20.3307 21.25 19.9167 21.25Z" fill="black"/>
<path d="M20.6667 20.5C20.2527 20.5 19.9167 20.164 19.9167 19.75V12.25C19.9167 11.836 20.2527 11.5 20.6667 11.5C21.0807 11.5 21.4167 11.836 21.4167 12.25V19.75C21.4167 20.164 21.0807 20.5 20.6667 20.5Z" fill="black"/>
<path d="M20.6667 13C20.2527 13 19.9167 12.664 19.9167 12.25C19.9167 11.836 20.2527 11.5 20.6667 11.5H20.6675C20.6675 11.086 21.0027 10.75 21.4171 10.75C21.8315 10.75 22.1667 11.086 22.1667 11.5C22.1667 12.3273 21.494 13 20.6667 13Z" fill="black"/>
<path d="M16.1667 7.75C15.7527 7.75 15.4167 7.414 15.4167 7V6.25C15.4167 5.836 15.7527 5.5 16.1667 5.5C16.5807 5.5 16.9167 5.836 16.9167 6.25V7C16.9167 7.414 16.5807 7.75 16.1667 7.75Z" fill="black"/>
<path d="M16.1667 7C15.7527 7 15.4167 6.664 15.4167 6.25C15.4167 5.83637 15.0804 5.5 14.6667 5.5C14.2527 5.5 13.9167 5.164 13.9167 4.75C13.9167 4.336 14.2527 4 14.6667 4C15.9076 4 16.9167 5.00912 16.9167 6.25C16.9167 6.664 16.5807 7 16.1667 7Z" fill="black"/>
<path d="M14.6667 5.5H10.1667C9.75275 5.5 9.41675 5.164 9.41675 4.75C9.41675 4.336 9.75275 4 10.1667 4H14.6667C15.0807 4 15.4167 4.336 15.4167 4.75C15.4167 5.164 15.0807 5.5 14.6667 5.5Z" fill="black"/>
<path d="M8.66675 7.75C8.25275 7.75 7.91675 7.414 7.91675 7V6.25C7.91675 5.836 8.25275 5.5 8.66675 5.5C9.08075 5.5 9.41675 5.836 9.41675 6.25V7C9.41675 7.414 9.08075 7.75 8.66675 7.75Z" fill="black"/>
<path d="M8.66675 7C8.25275 7 7.91675 6.664 7.91675 6.25C7.91675 5.00912 8.92587 4 10.1667 4C10.5807 4 10.9167 4.336 10.9167 4.75C10.9167 5.164 10.5807 5.5 10.1667 5.5C9.75312 5.5 9.41675 5.83637 9.41675 6.25C9.41675 6.664 9.08075 7 8.66675 7Z" fill="black"/>
</svg>
