<svg width="24" height="24" viewBox="0 0 24 24" fill="none" xmlns="http://www.w3.org/2000/svg">
<path d="M12.1765 14.0077C12.0524 14.0077 11.9279 14.0017 11.8027 13.9897C9.67567 13.7869 8.0553 11.883 8.19105 9.74587C8.32492 7.64475 10.0822 5.99887 12.1915 5.99887C12.2332 5.99887 12.2752 5.99963 12.3168 6.00075C14.4535 6.06863 16.192 7.86375 16.192 10.0031C16.192 10.1737 16.1812 10.3459 16.1598 10.5142C15.9052 12.5059 14.1929 14.0077 12.1765 14.0077ZM12.1915 7.49925C10.8933 7.49925 9.77017 8.55 9.68805 9.8415C9.60292 11.1787 10.6158 12.3701 11.9455 12.4972C13.2847 12.6247 14.506 11.6239 14.6718 10.3249C14.6853 10.2191 14.6924 10.1111 14.6924 10.0039C14.6924 8.66625 13.6057 7.54313 12.2695 7.50075L12.1915 7.49925Z" fill="black"/>
<path d="M19.1922 10.7535C18.7782 10.7535 18.4422 10.4175 18.4422 10.0035C18.4422 6.92663 16.1513 4.26675 13.1131 3.81675C10.058 3.36412 7.0861 5.24737 6.1981 8.19675C6.02222 8.77987 5.93335 9.38775 5.93335 10.0035C5.93335 10.4175 5.59735 10.7535 5.18335 10.7535C4.76935 10.7535 4.43335 10.4175 4.43335 10.0035C4.43335 9.24113 4.54397 8.48775 4.76185 7.764C5.86322 4.10737 9.54835 1.77375 13.3329 2.33287C17.1009 2.89125 19.9422 6.18863 19.9422 10.0035C19.9422 10.4179 19.6062 10.7535 19.1922 10.7535Z" fill="black"/>
<path d="M12.4403 21.594C12.3233 21.594 12.2048 21.5666 12.0938 21.5085C11.7267 21.3165 11.5846 20.8635 11.7762 20.4964C12.5978 18.9225 13.7626 17.6265 14.8887 16.3729C15.8791 15.2711 16.814 14.2301 17.5306 13.02C18.1186 12.027 18.4253 11.0077 18.4422 9.99075C18.4493 9.58087 18.7835 9.25312 19.1918 9.25312H19.2046C19.6186 9.25987 19.9486 9.60112 19.9422 10.0155C19.9208 11.2961 19.5436 12.564 18.8213 13.7839C18.0293 15.1215 17.0003 16.2671 16.0047 17.3749C14.8917 18.6139 13.8406 19.7842 13.106 21.1901C12.9721 21.4474 12.7111 21.594 12.4403 21.594Z" fill="black"/>
<path d="M11.9347 21.594C11.664 21.594 11.403 21.4474 11.2695 21.1909C10.5348 19.7846 9.48333 18.6142 8.37071 17.3756C7.37546 16.2679 6.34646 15.1222 5.55408 13.7846C4.83146 12.5648 4.45421 11.2965 4.43321 10.0163C4.42646 9.60225 4.75646 9.26063 5.17083 9.25388H5.18358C5.59196 9.25388 5.92608 9.58163 5.93321 9.9915C5.95008 11.0081 6.25646 12.0274 6.84483 13.0208C7.56146 14.2309 8.49633 15.2715 9.48671 16.3736C10.6128 17.6272 11.7772 18.9233 12.5992 20.4971C12.7912 20.8642 12.6491 21.3172 12.2816 21.5092C12.1702 21.5666 12.0517 21.594 11.9347 21.594Z" fill="black"/>
<path d="M12.1872 21.7463C12.1872 21.7463 12.1869 21.7463 12.1865 21.7463C11.7957 21.7459 11.4432 21.5306 11.2662 21.1849C11.078 20.8163 11.2242 20.3644 11.5929 20.1758C11.7856 20.0779 12.0001 20.0704 12.1876 20.1379C12.3755 20.0704 12.5907 20.0779 12.7831 20.1765C13.1517 20.3655 13.2972 20.8174 13.1082 21.186C12.9312 21.5314 12.5784 21.7463 12.1872 21.7463Z" fill="black"/>
</svg>
