<svg width="25" height="24" viewBox="0 0 25 24" fill="none" xmlns="http://www.w3.org/2000/svg">
<path d="M18.0186 18.1193C16.3906 18.1193 14.7691 17.586 13.6911 17.1851C12.1718 16.6196 10.6633 15.8764 9.20716 14.9752C7.69556 14.0396 6.40595 13.0196 5.37419 11.9445C4.3671 10.8949 3.34112 9.627 3.36617 8.1825C3.37311 7.79325 3.47023 7.43738 3.65446 7.12575C4.14279 6.30075 5.10748 5.88263 6.52119 5.88263C6.72315 5.88263 6.91817 5.89088 7.09778 5.90325C8.51457 5.99963 10.0547 6.40425 11.8068 7.13925C15.2675 8.59275 18.059 10.5195 19.8801 12.7118C20.7014 13.701 21.5964 15.0113 21.2233 16.3744C21.0607 16.9684 20.4864 17.9839 18.4633 18.1065C18.3157 18.1155 18.1673 18.1193 18.0186 18.1193ZM6.52119 7.38263C5.95579 7.38263 5.2312 7.46813 4.9907 7.87463C4.9248 7.98563 4.90938 8.11688 4.90784 8.20838C4.89165 9.11925 5.70411 10.0913 6.50115 10.9211C7.44427 11.9044 8.63289 12.8426 10.0347 13.7104C11.4033 14.5575 12.8189 15.255 14.2419 15.7845C15.2879 16.1738 16.8885 16.6999 18.3674 16.6095C18.8222 16.5821 19.6034 16.4644 19.7337 15.9889C19.9302 15.27 19.2272 14.3122 18.6811 13.6545C17.0161 11.6501 14.428 9.87338 11.1959 8.51625C9.60645 7.8495 8.23052 7.48388 6.99024 7.39913C6.84417 7.38938 6.68577 7.38263 6.52119 7.38263Z" fill="black"/>
<path d="M6.47113 18.132C5.39504 18.132 4.56216 17.8534 3.99559 17.3044C3.22091 16.554 3.16348 15.4204 3.83333 14.112C4.62691 12.5633 6.04254 11.3385 7.03846 10.5518C8.29916 9.5565 9.71479 8.65688 11.2476 7.87838C12.8297 7.07438 14.3822 6.498 15.8614 6.16425C16.5332 6.01275 17.3287 5.85788 18.1338 5.85788C18.9513 5.85788 19.6516 6.02438 20.2139 6.35325C20.5543 6.552 20.8302 6.81938 21.0114 7.1265C21.5606 8.05613 21.3471 9.237 20.377 10.6373C19.5853 11.7803 18.4557 12.876 16.9221 13.9871C13.9027 16.1756 10.7916 17.5643 7.92684 18.0034C7.56764 18.0581 7.02574 18.132 6.47113 18.132ZM18.1342 7.3575C17.484 7.3575 16.7968 7.49288 16.2102 7.62525C14.8578 7.93013 13.4283 8.46263 11.9618 9.20813C10.5207 9.94013 9.1914 10.7839 8.01087 11.7161C7.12595 12.4148 5.87334 13.4929 5.21351 14.781C5.01078 15.177 4.72403 15.8933 5.08363 16.2416C5.35072 16.5004 5.81746 16.632 6.47151 16.632C6.91782 16.632 7.37878 16.569 7.68712 16.5218C10.3064 16.1205 13.1816 14.8279 16.0025 12.7838C17.3934 11.7754 18.4067 10.7989 19.0997 9.79875C19.7044 8.92538 19.9037 8.25975 19.6755 7.87388C19.625 7.788 19.5371 7.707 19.4211 7.63913C19.1012 7.45238 18.6684 7.3575 18.1342 7.3575Z" fill="black"/>
<path d="M12.3326 21.75C12.3319 21.75 12.3311 21.75 12.3303 21.75C11.23 21.7455 10.2857 20.9756 9.52489 19.4606C8.90321 18.2228 8.49274 16.7224 8.27036 14.8744C7.83214 11.2335 8.15126 7.91775 9.19343 5.28563C9.66364 4.09913 10.3824 2.69063 11.7815 2.32275C12.8217 2.04863 13.8782 2.5695 14.7041 3.78263C15.685 5.22338 16.0677 7.03013 16.2701 8.2635C16.5264 9.8265 16.6189 11.4697 16.5453 13.1471C16.4693 14.8845 16.2065 16.4809 15.7644 17.892C15.3335 19.2653 14.718 20.7637 13.4199 21.4646C13.0711 21.6525 12.7069 21.7489 12.3373 21.7504C12.3357 21.75 12.3342 21.75 12.3326 21.75ZM12.33 3.75038C12.2818 3.75038 12.2336 3.75713 12.1831 3.77025C11.445 3.9645 10.944 5.0355 10.6318 5.82488C9.67944 8.2305 9.39231 11.2999 9.80162 14.7C10.0032 16.3774 10.3663 17.7191 10.9101 18.8021C11.3838 19.7453 11.8759 20.2459 12.3334 20.25C12.4398 20.2489 12.5535 20.2159 12.6714 20.1525C13.4893 19.7108 13.9483 18.5404 14.289 17.4536C14.6933 16.1644 14.9342 14.6936 15.0044 13.0826C15.0737 11.5054 14.987 9.96338 14.7473 8.49938C14.5673 7.40363 14.2339 5.808 13.4184 4.61025C13.0464 4.06388 12.6495 3.75038 12.33 3.75038Z" fill="black"/>
<path d="M12.3333 12.75C12.1325 12.75 11.9325 12.6713 11.7899 12.5288C11.6434 12.39 11.5625 12.1988 11.5625 12C11.5625 11.8013 11.6434 11.61 11.786 11.4675C12.0751 11.19 12.5916 11.19 12.8768 11.4675C13.0232 11.61 13.1042 11.8013 13.1042 12C13.1042 12.195 13.0232 12.39 12.8768 12.5288C12.7342 12.6713 12.5338 12.75 12.3333 12.75Z" fill="black"/>
</svg>
