<svg width="25" height="24" viewBox="0 0 25 24" fill="none" xmlns="http://www.w3.org/2000/svg">
<path d="M16.9583 18.1875C16.5328 18.1875 16.1875 17.8515 16.1875 17.4375V10.3125C16.1875 9.8985 16.5328 9.5625 16.9583 9.5625C17.3838 9.5625 17.7292 9.8985 17.7292 10.3125V17.4375C17.7292 17.8515 17.3838 18.1875 16.9583 18.1875Z" fill="black"/>
<path d="M16.9583 21.1875C15.6829 21.1875 14.6458 20.1784 14.6458 18.9375C14.6458 17.6966 15.6829 16.6875 16.9583 16.6875C18.2336 16.6875 19.2708 17.6966 19.2708 18.9375C19.2708 20.1784 18.2336 21.1875 16.9583 21.1875ZM16.9583 18.1875C16.5405 18.1875 16.1874 18.531 16.1874 18.9375C16.1874 19.344 16.5405 19.6875 16.9583 19.6875C17.376 19.6875 17.7291 19.344 17.7291 18.9375C17.7291 18.531 17.376 18.1875 16.9583 18.1875Z" fill="black"/>
<path d="M10.2643 16.806C10.1487 16.806 10.0311 16.7809 9.92014 16.7269L5.51752 14.5853C5.13673 14.4 4.98218 13.9496 5.17257 13.5788C5.36297 13.209 5.82547 13.0579 6.20703 13.2431L10.6096 15.3848C10.9904 15.57 11.145 16.0204 10.9546 16.3913C10.8193 16.6541 10.5472 16.806 10.2643 16.806Z" fill="black"/>
<path d="M12.3334 17.2785C11.5048 17.2785 10.6758 17.0948 9.92035 16.7269C9.53956 16.5416 9.38501 16.0913 9.57541 15.7204C9.7658 15.3503 10.2275 15.1991 10.6099 15.3848C11.6894 15.9098 12.9775 15.9098 14.0566 15.3848C14.4382 15.1991 14.9007 15.3499 15.0911 15.7204C15.2815 16.0909 15.1273 16.5413 14.7462 16.7269C13.9911 17.0948 13.1621 17.2785 12.3334 17.2785Z" fill="black"/>
<path d="M12.3341 13.3125C12.0512 13.3125 11.7791 13.161 11.6438 12.8981C11.4534 12.5276 11.6076 12.0772 11.9888 11.8916L21.2388 7.39162C21.6203 7.20637 22.0825 7.35675 22.2732 7.72725C22.4636 8.09775 22.3095 8.54812 21.9283 8.73375L12.6783 13.2337C12.5673 13.2874 12.4497 13.3125 12.3341 13.3125Z" fill="black"/>
<path d="M21.5826 8.8125C21.467 8.8125 21.3495 8.78737 21.2385 8.73337L11.9885 4.23337C11.6077 4.04812 11.4531 3.59775 11.6435 3.22687C11.8339 2.85675 12.2956 2.70562 12.678 2.89125L21.928 7.39125C22.3088 7.5765 22.4633 8.02687 22.2729 8.39775C22.1376 8.661 21.8655 8.8125 21.5826 8.8125Z" fill="black"/>
<path d="M16.9576 11.0625C16.842 11.0625 16.7245 11.0374 16.6135 10.9834L11.9885 8.73338C11.6077 8.54813 11.4531 8.09775 11.6435 7.72688C11.8339 7.35675 12.2956 7.206 12.678 7.39125L17.303 9.64125C17.6838 9.8265 17.8383 10.2769 17.6479 10.6478C17.5126 10.911 17.2405 11.0625 16.9576 11.0625Z" fill="black"/>
<path d="M5.86172 14.6644C5.74571 14.6644 5.62854 14.6392 5.51754 14.5852C4.72937 14.2016 4.2395 13.4302 4.2395 12.573C4.2395 12.159 4.58484 11.823 5.01034 11.823C5.43584 11.823 5.78117 12.159 5.78117 12.573C5.78117 12.8587 5.94459 13.1156 6.20705 13.2435C6.58823 13.4295 6.7424 13.8799 6.552 14.25C6.41672 14.5129 6.14423 14.6644 5.86172 14.6644Z" fill="black"/>
<path d="M5.01034 13.323C4.58484 13.323 4.2395 12.987 4.2395 12.573V9C4.2395 8.586 4.58484 8.25 5.01034 8.25C5.43584 8.25 5.78117 8.586 5.78117 9V12.573C5.78117 12.9874 5.43584 13.323 5.01034 13.323Z" fill="black"/>
<path d="M18.8048 14.6644C18.5223 14.6644 18.2498 14.5129 18.1145 14.25C17.9241 13.8799 18.0783 13.4295 18.4595 13.2435C18.722 13.116 18.8854 12.8587 18.8854 12.573C18.8854 12.159 19.2307 11.823 19.6562 11.823C20.0817 11.823 20.427 12.159 20.427 12.573C20.427 13.4302 19.9372 14.2016 19.149 14.5852C19.038 14.6392 18.9208 14.6644 18.8048 14.6644Z" fill="black"/>
<path d="M19.6563 13.323C19.2308 13.323 18.8855 12.987 18.8855 12.573V9C18.8855 8.586 19.2308 8.25 19.6563 8.25C20.0818 8.25 20.4272 8.586 20.4272 9V12.573C20.4272 12.9874 20.0818 13.323 19.6563 13.323Z" fill="black"/>
<path d="M14.4022 16.806C14.1193 16.806 13.8472 16.6545 13.7119 16.3916C13.5216 16.0211 13.6757 15.5707 14.0569 15.3851L18.4595 13.2435C18.8411 13.0582 19.3036 13.2086 19.494 13.5791C19.6844 13.9496 19.5302 14.4 19.149 14.5856L14.7464 16.7272C14.6358 16.7809 14.5179 16.806 14.4022 16.806Z" fill="black"/>
<path d="M3.08412 8.8125C2.80122 8.8125 2.52912 8.661 2.39383 8.39813C2.20344 8.02763 2.35761 7.57725 2.73878 7.39163L11.9888 2.89163C12.3703 2.706 12.8328 2.85675 13.0232 3.22725C13.2136 3.59775 13.0595 4.04813 12.6783 4.23375L3.42829 8.73375C3.31729 8.78738 3.19974 8.8125 3.08412 8.8125Z" fill="black"/>
<path d="M12.3326 13.3125C12.217 13.3125 12.0995 13.2874 11.9885 13.2334L2.73847 8.73338C2.35768 8.54813 2.20313 8.09775 2.39352 7.72688C2.58392 7.35675 3.04565 7.206 3.42798 7.39125L12.678 11.8913C13.0588 12.0765 13.2133 12.5269 13.0229 12.8978C12.8876 13.161 12.6155 13.3125 12.3326 13.3125Z" fill="black"/>
</svg>
