<svg width="60" height="60" viewBox="0 0 60 60" fill="none" xmlns="http://www.w3.org/2000/svg">
<rect width="60" height="60" rx="20" fill="#E61A1A"/>
<path d="M34.2725 16.25H20.7618C20.0718 16.25 19.5118 15.69 19.5118 15C19.5118 14.31 20.0718 13.75 20.7618 13.75H34.2725C34.9625 13.75 35.5225 14.31 35.5225 15C35.5225 15.69 34.9625 16.25 34.2725 16.25Z" fill="white"/>
<path d="M20.7618 20.9375C18.78 20.9375 17.1681 19.325 17.1681 17.3438C17.1681 15.3625 18.78 13.75 20.7618 13.75C21.4518 13.75 22.0118 14.31 22.0118 15C22.0118 15.69 21.4518 16.25 20.7618 16.25C20.1787 16.25 19.6681 16.7613 19.6681 17.3438C19.6681 17.9262 20.1787 18.4375 20.7618 18.4375C21.4518 18.4375 22.0118 18.9975 22.0118 19.6875C22.0118 20.3775 21.4518 20.9375 20.7618 20.9375Z" fill="white"/>
<path d="M25.1244 41.37C24.46 41.37 23.9069 40.8462 23.8769 40.1756C23.7525 37.3831 24.2494 34.54 25.3138 31.9544C25.5769 31.3156 26.3056 31.0113 26.9456 31.2744C27.5838 31.5369 27.8881 32.2675 27.6256 32.9063C26.6988 35.1581 26.2663 37.6331 26.3744 40.065C26.405 40.755 25.8706 41.3388 25.1813 41.3694C25.1625 41.3694 25.1431 41.37 25.1244 41.37Z" fill="white"/>
<path d="M18.2606 25.625C16.2787 25.625 14.6669 24.0125 14.6669 22.0312C14.6669 20.05 16.2787 18.4375 18.2606 18.4375C18.9506 18.4375 19.5106 18.9975 19.5106 19.6875C19.5106 20.3775 18.9506 20.9375 18.2606 20.9375C17.6775 20.9375 17.1669 21.4488 17.1669 22.0312C17.1669 22.6137 17.6775 23.125 18.2606 23.125C18.9506 23.125 19.5106 23.685 19.5106 24.375C19.5106 25.065 18.9506 25.625 18.2606 25.625Z" fill="white"/>
<path d="M17.3438 30.3125C15.3619 30.3125 13.75 28.7 13.75 26.7188C13.75 24.7375 15.3619 23.125 17.3438 23.125C18.0338 23.125 18.5938 23.685 18.5938 24.375C18.5938 25.065 18.0338 25.625 17.3438 25.625C16.7606 25.625 16.25 26.1356 16.25 26.7188C16.25 27.3019 16.7606 27.8125 17.3438 27.8125C18.0338 27.8125 18.5938 28.3725 18.5938 29.0625C18.5938 29.7525 18.0338 30.3125 17.3438 30.3125Z" fill="white"/>
<path d="M20.155 35C18.1732 35 16.5613 33.3875 16.5613 31.4062C16.5613 29.425 18.1732 27.8125 20.155 27.8125C20.845 27.8125 21.405 28.3725 21.405 29.0625C21.405 29.7525 20.845 30.3125 20.155 30.3125C19.5719 30.3125 19.0613 30.8238 19.0613 31.4062C19.0613 31.9887 19.5719 32.5 20.155 32.5C20.845 32.5 21.405 33.06 21.405 33.75C21.405 34.44 20.8457 35 20.155 35Z" fill="white"/>
<path d="M24.3618 20.9375C23.6718 20.9375 23.1118 20.3775 23.1118 19.6875C23.1118 18.9975 23.6718 18.4375 24.3618 18.4375C24.9449 18.4375 25.4556 17.9262 25.4556 17.3438C25.4556 16.7613 24.9443 16.25 24.3618 16.25C23.6718 16.25 23.1118 15.69 23.1118 15C23.1118 14.31 23.6718 13.75 24.3618 13.75C26.3437 13.75 27.9556 15.3625 27.9556 17.3438C27.9556 19.325 26.3431 20.9375 24.3618 20.9375Z" fill="white"/>
<path d="M26.7056 30.3125H17.3438C16.6538 30.3125 16.0938 29.7525 16.0938 29.0625C16.0938 28.3725 16.6538 27.8125 17.3438 27.8125H26.7056C27.3956 27.8125 27.9556 28.3725 27.9556 29.0625C27.9556 29.7525 27.3956 30.3125 26.7056 30.3125Z" fill="white"/>
<path d="M26.7056 25.625H17.3438C16.6538 25.625 16.0938 25.065 16.0938 24.375C16.0938 23.685 16.6538 23.125 17.3438 23.125H26.7056C27.3956 23.125 27.9556 23.685 27.9556 24.375C27.9556 25.065 27.3956 25.625 26.7056 25.625Z" fill="white"/>
<path d="M25.5337 25.625C24.8437 25.625 24.2837 25.065 24.2837 24.375C24.2837 23.685 24.8437 23.125 25.5337 23.125C26.1168 23.125 26.6274 22.6137 26.6274 22.0312C26.6274 21.4488 26.1168 20.9375 25.5337 20.9375C24.8437 20.9375 24.2837 20.3775 24.2837 19.6875C24.2837 18.9975 24.8437 18.4375 25.5337 18.4375C27.5156 18.4375 29.1274 20.05 29.1274 22.0312C29.1274 24.0125 27.5149 25.625 25.5337 25.625Z" fill="white"/>
<path d="M25.5337 20.9375H18.2606C17.5706 20.9375 17.0106 20.3775 17.0106 19.6875C17.0106 18.9975 17.5706 18.4375 18.2606 18.4375H25.5337C26.2237 18.4375 26.7837 18.9975 26.7837 19.6875C26.7837 20.3775 26.2237 20.9375 25.5337 20.9375Z" fill="white"/>
<path d="M24.3618 35C23.6718 35 23.1118 34.44 23.1118 33.75C23.1118 33.06 23.6718 32.5 24.3618 32.5C24.9449 32.5 25.4556 31.9887 25.4556 31.4062C25.4556 30.8238 24.9449 30.3125 24.3618 30.3125C23.6718 30.3125 23.1118 29.7525 23.1118 29.0625C23.1118 28.3725 23.6718 27.8125 24.3618 27.8125C26.3437 27.8125 27.9556 29.425 27.9556 31.4062C27.9556 33.3875 26.3431 35 24.3618 35Z" fill="white"/>
<path d="M24.3619 35H20.1556C19.4656 35 18.9056 34.44 18.9056 33.75C18.9056 33.06 19.4656 32.5 20.1556 32.5H24.3619C25.0519 32.5 25.6119 33.06 25.6119 33.75C25.6119 34.44 25.0519 35 24.3619 35Z" fill="white"/>
<path d="M26.7056 30.3125C26.0156 30.3125 25.4556 29.7525 25.4556 29.0625C25.4556 28.3725 26.0156 27.8125 26.7056 27.8125C27.2887 27.8125 27.7993 27.3012 27.7993 26.7188C27.7993 26.1363 27.2881 25.625 26.7056 25.625C26.0156 25.625 25.4556 25.065 25.4556 24.375C25.4556 23.685 26.0156 23.125 26.7056 23.125C28.6874 23.125 30.2993 24.7375 30.2993 26.7188C30.2993 28.7 28.6868 30.3125 26.7056 30.3125Z" fill="white"/>
<path d="M30.1931 46.185C28.8343 46.185 27.4937 45.7369 26.3725 44.8837C24.8693 43.7412 23.96 42.025 23.8775 40.175C23.8468 39.485 24.3812 38.9012 25.0706 38.8706C25.7481 38.8344 26.3437 39.3744 26.375 40.0637C26.4243 41.1706 26.9743 42.2012 27.885 42.8931C28.7956 43.5856 29.935 43.84 31.0187 43.5906C31.6887 43.4337 32.3618 43.8544 32.5175 44.5275C32.6725 45.2006 32.2525 45.8712 31.58 46.0262C31.1206 46.1331 30.6556 46.185 30.1931 46.185Z" fill="white"/>
<path d="M36.1512 33.6462C35.6875 33.6462 35.2425 33.3875 35.0262 32.9431C34.7244 32.3225 34.9825 31.5744 35.6031 31.2719C36.6419 30.7662 37.3131 29.6925 37.3131 28.5375C37.3131 27.8475 37.8731 27.2875 38.5631 27.2875C39.2531 27.2875 39.8131 27.8475 39.8131 28.5375C39.8131 30.6431 38.59 32.5987 36.6969 33.52C36.5212 33.6056 36.3344 33.6462 36.1512 33.6462Z" fill="white"/>
<path d="M38.5631 29.7875C37.8731 29.7875 37.3131 29.2275 37.3131 28.5375V19.2906C37.3131 18.6006 37.8731 18.0406 38.5631 18.0406C39.2531 18.0406 39.8131 18.6006 39.8131 19.2906V28.5375C39.8131 29.2275 39.2537 29.7875 38.5631 29.7875Z" fill="white"/>
<path d="M31.2975 46.0594C30.6332 46.0594 30.0807 45.5363 30.05 44.8656L29.9094 41.7538C29.8338 40.1006 30.0694 38.4688 30.61 36.9038C30.8357 36.2513 31.5488 35.9056 32.2 36.1306C32.8525 36.3562 33.1988 37.0681 32.9732 37.72C32.5357 38.9844 32.345 40.3031 32.4069 41.6394L32.5475 44.7519C32.5788 45.4419 32.0444 46.0263 31.355 46.0569C31.3363 46.0588 31.3169 46.0594 31.2975 46.0594Z" fill="white"/>
<path d="M31.7919 38.5625C31.6569 38.5625 31.5188 38.5406 31.3844 38.4937C30.7319 38.2687 30.385 37.5569 30.6106 36.9044C31.455 34.4575 33.2744 32.4044 35.6031 31.2719C36.2238 30.9706 36.9713 31.2281 37.2744 31.8487C37.5756 32.47 37.3175 33.2175 36.6969 33.5194C34.96 34.3644 33.6031 35.895 32.9738 37.7194C32.7956 38.2375 32.3106 38.5625 31.7919 38.5625Z" fill="white"/>
<path d="M38.5631 20.5406C37.8731 20.5406 37.3131 19.9806 37.3131 19.2906C37.3131 17.6137 35.9487 16.2494 34.2725 16.2494C33.5825 16.2494 33.0225 15.6894 33.0225 14.9994C33.0225 14.3094 33.5825 13.7494 34.2725 13.7494C37.3281 13.7494 39.8131 16.235 39.8131 19.2906C39.8131 19.9812 39.2537 20.5406 38.5631 20.5406Z" fill="white"/>
<path d="M45 17.625H41.7812C41.0913 17.625 40.5312 17.065 40.5312 16.375C40.5312 15.685 41.0913 15.125 41.7812 15.125H45C45.69 15.125 46.25 15.685 46.25 16.375C46.25 17.065 45.69 17.625 45 17.625Z" fill="white"/>
<path d="M38.5631 20.8431C37.8731 20.8431 37.3131 20.2831 37.3131 19.5931C37.3131 17.1294 39.3175 15.125 41.7806 15.125C42.4706 15.125 43.0306 15.685 43.0306 16.375C43.0306 17.065 42.4706 17.625 41.7806 17.625C40.6956 17.625 39.8131 18.5081 39.8131 19.5931C39.8131 20.2837 39.2537 20.8431 38.5631 20.8431Z" fill="white"/>
<path d="M45 32.7031H41.7812C41.0913 32.7031 40.5312 32.1431 40.5312 31.4531C40.5312 30.7631 41.0913 30.2031 41.7812 30.2031H45C45.69 30.2031 46.25 30.7631 46.25 31.4531C46.25 32.1431 45.69 32.7031 45 32.7031Z" fill="white"/>
<path d="M41.7812 32.7031C39.3181 32.7031 37.3137 30.6988 37.3137 28.235C37.3137 27.545 37.8737 26.985 38.5637 26.985C39.2537 26.985 39.8137 27.545 39.8137 28.235C39.8137 29.32 40.6962 30.2031 41.7812 30.2031C42.4712 30.2031 43.0312 30.7631 43.0312 31.4531C43.0312 32.1431 42.4712 32.7031 41.7812 32.7031Z" fill="white"/>
<path d="M45 32.7031C44.31 32.7031 43.75 32.1431 43.75 31.4531V16.375C43.75 15.685 44.31 15.125 45 15.125C45.69 15.125 46.25 15.685 46.25 16.375V31.4531C46.25 32.1431 45.69 32.7031 45 32.7031Z" fill="white"/>
</svg>
