<svg id="Layer_1" enable-background="new 0 0 64 64" height="512" viewBox="0 0 64 64" width="512" xmlns="http://www.w3.org/2000/svg"><rect width="60" height="60" rx="20" fill="#E61A1A"/><g><path fill="white" d="m15.029 50.968c-.512 0-1.024-.195-1.414-.586-.781-.781-.781-2.047 0-2.828l33.941-33.941c.78-.781 2.048-.781 2.828 0 .781.781.781 2.047 0 2.828l-33.941 33.941c-.39.39-.902.586-1.414.586z"/></g><g><path fill="white" d="m31.932 57.987c-.001 0 0 0 0 0-2.274 0-4.529-.296-6.702-.881-9.364-2.519-16.696-10.276-18.679-19.763-2.021-9.665 1.709-19.825 9.504-25.884 4.506-3.503 10.189-5.433 16.003-5.433 4.025 0 8.022.936 11.56 2.705 8.737 4.371 14.382 13.503 14.382 23.266 0 7.966-3.759 15.644-10.055 20.538-4.523 3.516-10.21 5.452-16.013 5.452zm.127-47.961c-4.929 0-9.741 1.63-13.548 4.591-6.597 5.128-9.755 13.727-8.044 21.907 1.678 8.025 7.881 14.588 15.803 16.72 1.834.493 3.739.743 5.662.743 4.919 0 9.734-1.637 13.559-4.61 5.328-4.142 8.509-10.639 8.509-17.38 0-8.261-4.777-15.989-12.171-19.688-2.985-1.493-6.363-2.283-9.77-2.283z"/></g></svg>