<svg id="Layer_1" enable-background="new 0 0 64 64" height="512" viewBox="0 0 64 64" width="512" xmlns="http://www.w3.org/2000/svg"><g><path fill="#FFFFFF" d="m44.308 45.805c-.512 0-1.023-.195-1.414-.586l-5.08-5.08c-.781-.781-.781-2.047 0-2.828s2.047-.781 2.828 0l5.08 5.08c.781.781.781 2.047 0 2.828-.391.391-.903.586-1.414.586z"/></g><g><path fill="#FFFFFF" d="m51.379 57.119c-.512 0-1.023-.195-1.414-.586l-7.071-7.071c-.781-.781-.781-2.047 0-2.828s2.047-.781 2.828 0l7.071 7.071c.781.781.781 2.047 0 2.828-.391.39-.902.586-1.414.586z"/></g><g><path fill="#FFFFFF" d="m55.621 52.876c-.512 0-1.023-.195-1.414-.586l-7.071-7.071c-.781-.781-.781-2.047 0-2.828s2.047-.781 2.828 0l7.071 7.071c.781.781.781 2.047 0 2.828-.39.391-.902.586-1.414.586z"/></g><g><path fill="#FFFFFF" d="m44.308 50.047c-.512 0-1.023-.195-1.413-.585-1.279-1.278-1.756-2.972-1.308-4.647.479-1.788 1.943-3.251 3.73-3.73 1.674-.449 3.369.027 4.647 1.307.78.782.78 2.048-.002 2.829-.779.78-2.047.781-2.828-.001-.334-.334-.584-.325-.783-.27-.404.108-.792.496-.9.901-.054.2-.063.45.27.783.782.781.782 2.047.002 2.829-.391.389-.904.584-1.415.584z"/></g><g><path fill="#FFFFFF" d="m26.38 45.983c-.001 0 0 0 0 0-1.793 0-3.573-.245-5.291-.727-9.859-2.765-16.12-12.831-14.255-22.917 1.724-9.315 10.204-16.339 19.728-16.339.595 0 1.197.028 1.79.082 10.176.936 18.148 9.683 18.148 19.916 0 2.445-.437 4.834-1.299 7.102-2.927 7.705-10.491 12.883-18.821 12.883zm.182-35.983c-7.626 0-14.416 5.617-15.794 13.066-1.493 8.071 3.515 16.126 11.401 18.338 1.367.383 2.783.578 4.21.578h.001c6.681 0 12.741-4.141 15.082-10.304.689-1.812 1.038-3.723 1.038-5.681 0-8.186-6.375-15.184-14.514-15.932-.472-.043-.951-.065-1.424-.065z"/></g><g><path fill="#FFFFFF" d="m53.375 58.004c-1.249 0-2.448-.508-3.411-1.472-.78-.782-.78-2.048.002-2.829.779-.781 2.047-.78 2.828.001.333.333.581.323.783.27.404-.108.792-.496.9-.901.054-.2.063-.45-.27-.783-.782-.781-.782-2.047-.002-2.829.781-.781 2.049-.782 2.828-.001 1.279 1.278 1.756 2.972 1.308 4.647-.479 1.788-1.943 3.251-3.73 3.73-.413.113-.827.167-1.236.167z"/></g></svg>