<svg width="60" height="60" viewBox="0 0 60 60" fill="none" xmlns="http://www.w3.org/2000/svg">
<rect width="60" height="60" rx="20" fill="#00A907"/>
<path d="M39.2382 46.25H25.7275C25.0375 46.25 24.4775 45.69 24.4775 45C24.4775 44.31 25.0375 43.75 25.7275 43.75H39.2382C39.9282 43.75 40.4882 44.31 40.4882 45C40.4882 45.69 39.9288 46.25 39.2382 46.25Z" fill="white"/>
<path d="M39.2382 46.25C38.5482 46.25 37.9882 45.69 37.9882 45C37.9882 44.31 38.5482 43.75 39.2382 43.75C39.8213 43.75 40.3319 43.2387 40.3319 42.6562C40.3319 42.0738 39.8213 41.5625 39.2382 41.5625C38.5482 41.5625 37.9882 41.0025 37.9882 40.3125C37.9882 39.6225 38.5482 39.0625 39.2382 39.0625C41.22 39.0625 42.8319 40.675 42.8319 42.6562C42.8319 44.6375 41.22 46.25 39.2382 46.25Z" fill="white"/>
<path d="M33.5287 28.82C33.3699 28.82 33.2087 28.7894 33.0531 28.7256C32.4149 28.4625 32.1106 27.7319 32.3737 27.0938C33.3006 24.8431 33.7343 22.3681 33.6256 19.9356C33.5949 19.2456 34.1293 18.6619 34.8187 18.6312C35.5012 18.5919 36.0924 19.1344 36.1231 19.8244C36.2474 22.6181 35.7499 25.4612 34.6843 28.0462C34.4862 28.5287 34.0199 28.82 33.5287 28.82Z" fill="white"/>
<path d="M41.7394 41.5625C41.0494 41.5625 40.4894 41.0025 40.4894 40.3125C40.4894 39.6225 41.0494 39.0625 41.7394 39.0625C42.3225 39.0625 42.8331 38.5512 42.8331 37.9688C42.8331 37.3863 42.3225 36.875 41.7394 36.875C41.0494 36.875 40.4894 36.315 40.4894 35.625C40.4894 34.935 41.0494 34.375 41.7394 34.375C43.7213 34.375 45.3331 35.9875 45.3331 37.9688C45.3331 39.95 43.7213 41.5625 41.7394 41.5625Z" fill="white"/>
<path d="M42.6562 36.875C41.9663 36.875 41.4062 36.315 41.4062 35.625C41.4062 34.935 41.9663 34.375 42.6562 34.375C43.2394 34.375 43.75 33.8637 43.75 33.2812C43.75 32.6988 43.2394 32.1875 42.6562 32.1875C41.9663 32.1875 41.4062 31.6275 41.4062 30.9375C41.4062 30.2475 41.9663 29.6875 42.6562 29.6875C44.6381 29.6875 46.25 31.3 46.25 33.2812C46.25 35.2625 44.6381 36.875 42.6562 36.875Z" fill="white"/>
<path d="M39.8438 32.1875C39.1538 32.1875 38.5938 31.6275 38.5938 30.9375C38.5938 30.2475 39.1538 29.6875 39.8438 29.6875C40.4269 29.6875 40.9375 29.1762 40.9375 28.5938C40.9375 28.0113 40.4269 27.5 39.8438 27.5C39.1538 27.5 38.5938 26.94 38.5938 26.25C38.5938 25.56 39.1538 25 39.8438 25C41.8256 25 43.4375 26.6125 43.4375 28.5938C43.4375 30.575 41.8256 32.1875 39.8438 32.1875Z" fill="white"/>
<path d="M35.6375 46.25C33.6556 46.25 32.0437 44.6375 32.0437 42.6562C32.0437 40.675 33.6556 39.0625 35.6375 39.0625C36.3275 39.0625 36.8875 39.6225 36.8875 40.3125C36.8875 41.0025 36.3275 41.5625 35.6375 41.5625C35.0543 41.5625 34.5437 42.0738 34.5437 42.6562C34.5437 43.2387 35.0543 43.75 35.6375 43.75C36.3275 43.75 36.8875 44.31 36.8875 45C36.8875 45.69 36.3275 46.25 35.6375 46.25Z" fill="white"/>
<path d="M42.6562 32.1875H33.2937C32.6037 32.1875 32.0437 31.6275 32.0437 30.9375C32.0437 30.2475 32.6037 29.6875 33.2937 29.6875H42.6562C43.3462 29.6875 43.9062 30.2475 43.9062 30.9375C43.9062 31.6275 43.3462 32.1875 42.6562 32.1875Z" fill="white"/>
<path d="M42.6562 36.875H33.2937C32.6037 36.875 32.0437 36.315 32.0437 35.625C32.0437 34.935 32.6037 34.375 33.2937 34.375H42.6562C43.3462 34.375 43.9062 34.935 43.9062 35.625C43.9062 36.315 43.3462 36.875 42.6562 36.875Z" fill="white"/>
<path d="M34.4656 41.5625C32.4837 41.5625 30.8718 39.95 30.8718 37.9688C30.8718 35.9875 32.4837 34.375 34.4656 34.375C35.1556 34.375 35.7156 34.935 35.7156 35.625C35.7156 36.315 35.1556 36.875 34.4656 36.875C33.8825 36.875 33.3718 37.3863 33.3718 37.9688C33.3718 38.5512 33.8825 39.0625 34.4656 39.0625C35.1556 39.0625 35.7156 39.6225 35.7156 40.3125C35.7156 41.0025 35.1556 41.5625 34.4656 41.5625Z" fill="white"/>
<path d="M41.7393 41.5625H34.4656C33.7756 41.5625 33.2156 41.0025 33.2156 40.3125C33.2156 39.6225 33.7756 39.0625 34.4656 39.0625H41.74C42.43 39.0625 42.99 39.6225 42.99 40.3125C42.99 41.0025 42.43 41.5625 41.7393 41.5625Z" fill="white"/>
<path d="M35.6375 32.1875C33.6556 32.1875 32.0437 30.575 32.0437 28.5938C32.0437 26.6125 33.6556 25 35.6375 25C36.3275 25 36.8875 25.56 36.8875 26.25C36.8875 26.94 36.3275 27.5 35.6375 27.5C35.0543 27.5 34.5437 28.0113 34.5437 28.5938C34.5437 29.1762 35.0543 29.6875 35.6375 29.6875C36.3275 29.6875 36.8875 30.2475 36.8875 30.9375C36.8875 31.6275 36.3275 32.1875 35.6375 32.1875Z" fill="white"/>
<path d="M39.8437 27.5H35.6375C34.9475 27.5 34.3875 26.94 34.3875 26.25C34.3875 25.56 34.9475 25 35.6375 25H39.8437C40.5337 25 41.0937 25.56 41.0937 26.25C41.0937 26.94 40.5337 27.5 39.8437 27.5Z" fill="white"/>
<path d="M33.2937 36.875C31.3118 36.875 29.7 35.2625 29.7 33.2812C29.7 31.3 31.3118 29.6875 33.2937 29.6875C33.9837 29.6875 34.5437 30.2475 34.5437 30.9375C34.5437 31.6275 33.9837 32.1875 33.2937 32.1875C32.7106 32.1875 32.2 32.6988 32.2 33.2812C32.2 33.8637 32.7106 34.375 33.2937 34.375C33.9837 34.375 34.5437 34.935 34.5437 35.625C34.5437 36.315 33.9837 36.875 33.2937 36.875Z" fill="white"/>
<path d="M34.8731 21.13C34.2088 21.13 33.6556 20.6069 33.6256 19.9363C33.5763 18.8294 33.025 17.7975 32.115 17.1056C31.2038 16.4138 30.0606 16.16 28.9806 16.4088C28.31 16.5644 27.6369 16.145 27.4819 15.4713C27.3269 14.7988 27.7469 14.1275 28.4194 13.9725C30.2275 13.5556 32.1244 13.9731 33.6269 15.1144C35.13 16.2569 36.04 17.9731 36.1231 19.8238C36.1544 20.5138 35.62 21.0981 34.9306 21.1288C34.9113 21.1294 34.8919 21.13 34.8731 21.13Z" fill="white"/>
<path d="M21.4357 32.7125C20.7457 32.7125 20.1857 32.1525 20.1857 31.4625C20.1857 29.3569 21.4094 27.4006 23.3032 26.48C23.9244 26.1775 24.6713 26.4363 24.9744 27.0569C25.2757 27.6781 25.0175 28.4256 24.3969 28.7275C23.3575 29.2331 22.6857 30.3063 22.6857 31.4619C22.6857 32.1525 22.1257 32.7125 21.4357 32.7125Z" fill="white"/>
<path d="M21.4357 41.9588C20.7457 41.9588 20.1857 41.3988 20.1857 40.7088V31.4625C20.1857 30.7725 20.7457 30.2125 21.4357 30.2125C22.1257 30.2125 22.6857 30.7725 22.6857 31.4625V40.7088C22.6857 41.3994 22.1257 41.9588 21.4357 41.9588Z" fill="white"/>
<path d="M28.2081 23.9375C28.0731 23.9375 27.935 23.9156 27.8006 23.8687C27.1481 23.6437 26.8013 22.9319 27.0269 22.28C27.4631 21.015 27.6538 19.6956 27.5931 18.3587L27.4513 15.2475C27.42 14.5575 27.9538 13.9731 28.6431 13.9419C29.3238 13.9087 29.9169 14.4437 29.9488 15.1337L30.0906 18.2456C30.165 19.8994 29.9294 21.5312 29.39 23.095C29.2113 23.6125 28.7269 23.9375 28.2081 23.9375Z" fill="white"/>
<path d="M23.8507 28.8544C23.3876 28.8544 22.9426 28.5956 22.7257 28.1513C22.4244 27.53 22.6826 26.7825 23.3032 26.4806C25.0644 25.6238 26.3869 24.1319 27.0263 22.28C27.2513 21.6275 27.9626 21.2813 28.6163 21.5069C29.2688 21.7319 29.6151 22.4438 29.3894 23.0963C28.5313 25.5794 26.7582 27.5794 24.3969 28.7281C24.2207 28.8138 24.0344 28.8544 23.8507 28.8544Z" fill="white"/>
<path d="M25.7275 46.25C22.6713 46.25 20.1857 43.7644 20.1857 40.7094C20.1857 40.0194 20.7457 39.4594 21.4357 39.4594C22.1257 39.4594 22.6857 40.0194 22.6857 40.7094C22.6857 42.3862 24.0507 43.75 25.7275 43.75C26.4175 43.75 26.9775 44.31 26.9775 45C26.9775 45.69 26.4182 46.25 25.7275 46.25Z" fill="white"/>
<path d="M18.2175 44.8744H15C14.31 44.8744 13.75 44.3144 13.75 43.6244C13.75 42.9344 14.31 42.3744 15 42.3744H18.2175C18.9075 42.3744 19.4675 42.9344 19.4675 43.6244C19.4675 44.3144 18.9081 44.8744 18.2175 44.8744Z" fill="white"/>
<path d="M18.2175 44.8744C17.5275 44.8744 16.9675 44.3144 16.9675 43.6244C16.9675 42.9344 17.5275 42.3744 18.2175 42.3744C19.3025 42.3744 20.185 41.4913 20.185 40.4062C20.185 39.7163 20.745 39.1562 21.435 39.1562C22.125 39.1562 22.685 39.7163 22.685 40.4062C22.6857 42.87 20.6813 44.8744 18.2175 44.8744Z" fill="white"/>
<path d="M18.2175 29.7962H15C14.31 29.7962 13.75 29.2362 13.75 28.5462C13.75 27.8562 14.31 27.2962 15 27.2962H18.2175C18.9075 27.2962 19.4675 27.8562 19.4675 28.5462C19.4675 29.2362 18.9081 29.7962 18.2175 29.7962Z" fill="white"/>
<path d="M21.4356 33.015C20.7456 33.015 20.1856 32.455 20.1856 31.765C20.1856 30.6794 19.3031 29.7969 18.2181 29.7969C17.5281 29.7969 16.9681 29.2369 16.9681 28.5469C16.9681 27.8569 17.5281 27.2969 18.2181 27.2969C20.6813 27.2969 22.6856 29.3013 22.6856 31.765C22.6856 32.455 22.1256 33.015 21.4356 33.015Z" fill="white"/>
<path d="M15 44.8744C14.31 44.8744 13.75 44.3144 13.75 43.6244V28.5462C13.75 27.8562 14.31 27.2962 15 27.2962C15.69 27.2962 16.25 27.8562 16.25 28.5462V43.6244C16.25 44.315 15.69 44.8744 15 44.8744Z" fill="white"/>
</svg>
