<svg width="399" height="165" viewBox="0 0 399 165" fill="none" xmlns="http://www.w3.org/2000/svg">
<path d="M0 20C0 8.95431 8.95431 0 20 0H379C390.046 0 399 8.95431 399 20V145C399 156.046 390.046 165 379 165H20C8.9543 165 0 156.046 0 145V20Z" fill="white"/>
<rect x="65" y="52" width="60" height="60" rx="16" fill="#1A78E6"/>
<rect x="91" y="30" width="8" height="22" fill="#1A78E6"/>
<circle cx="95" cy="21" r="14" fill="#1A78E6"/>
<circle cx="95" cy="21" r="7" fill="white"/>
<rect width="8" height="22" transform="matrix(1 0 0 -1 91 134)" fill="#1A78E6"/>
<circle cx="14" cy="14" r="14" transform="matrix(1 0 0 -1 81 157)" fill="#1A78E6"/>
<circle cx="7" cy="7" r="7" transform="matrix(1 0 0 -1 88 150)" fill="white"/>
<path d="M133.5 48H141.5V60C141.5 64.4183 137.918 68 133.5 68V68V48Z" fill="#1A78E6"/>
<path d="M122 68V60H141V60C141 64.4183 137.418 68 133 68H122Z" fill="#1A78E6"/>
<circle cx="137.5" cy="37" r="14" fill="#1A78E6"/>
<circle cx="137.5" cy="37" r="7" fill="white"/>
<path d="M56 48H48V60C48 64.4183 51.5817 68 56 68V68V48Z" fill="#1A78E6"/>
<path d="M67.5 68V60H48.5V60C48.5 64.4183 52.0817 68 56.5 68H67.5Z" fill="#1A78E6"/>
<circle cx="14" cy="14" r="14" transform="matrix(-1 0 0 1 66 23)" fill="#1A78E6"/>
<circle cx="7" cy="7" r="7" transform="matrix(-1 0 0 1 59 30)" fill="white"/>
<path d="M56 116H48V104C48 99.5817 51.5817 96 56 96V96V116Z" fill="#1A78E6"/>
<path d="M67.5 96V104H48.5V104C48.5 99.5817 52.0817 96 56.5 96H67.5Z" fill="#1A78E6"/>
<circle cx="52" cy="127" r="14" transform="rotate(180 52 127)" fill="#1A78E6"/>
<circle cx="52" cy="127" r="7" transform="rotate(180 52 127)" fill="white"/>
<path d="M133.5 116H141.5V104C141.5 99.5817 137.918 96 133.5 96V96V116Z" fill="#1A78E6"/>
<path d="M122 96V104H141V104C141 99.5817 137.418 96 133 96H122Z" fill="#1A78E6"/>
<circle cx="14" cy="14" r="14" transform="matrix(1 0 0 -1 123.5 141)" fill="#1A78E6"/>
<circle cx="7" cy="7" r="7" transform="matrix(1 0 0 -1 130.5 134)" fill="white"/>
<rect x="150" y="77.5" width="9" height="25" transform="rotate(90 150 77.5)" fill="#1A78E6"/>
<circle cx="160" cy="82" r="14" transform="rotate(90 160 82)" fill="#1A78E6"/>
<circle cx="160" cy="82" r="7" transform="rotate(90 160 82)" fill="white"/>
<rect width="9" height="25" transform="matrix(0 1 1 0 40 77.5)" fill="#1A78E6"/>
<circle cx="14" cy="14" r="14" transform="matrix(0 1 1 0 16 68)" fill="#1A78E6"/>
<circle cx="7" cy="7" r="7" transform="matrix(0 1 1 0 23 75)" fill="white"/>
<rect x="84.6255" y="87.5731" width="30.4504" height="7.79453" rx="3.89726" transform="rotate(-40 84.6255 87.5731)" fill="white"/>
<rect x="82.0103" y="76.1897" width="17.3742" height="7.79453" rx="3.89726" transform="rotate(40 82.0103 76.1897)" fill="white"/>
<rect x="65" y="52" width="60" height="60" rx="16" fill="#1A78E6"/>
<rect x="91" y="30" width="8" height="22" fill="#1A78E6"/>
<circle cx="95" cy="21" r="14" fill="#1A78E6"/>
<circle cx="95" cy="21" r="7" fill="white"/>
<rect width="8" height="22" transform="matrix(1 0 0 -1 91 134)" fill="#1A78E6"/>
<circle cx="14" cy="14" r="14" transform="matrix(1 0 0 -1 81 157)" fill="#1A78E6"/>
<circle cx="7" cy="7" r="7" transform="matrix(1 0 0 -1 88 150)" fill="white"/>
<path d="M133.5 48H141.5V60C141.5 64.4183 137.918 68 133.5 68V68V48Z" fill="#1A78E6"/>
<path d="M122 68V60H141V60C141 64.4183 137.418 68 133 68H122Z" fill="#1A78E6"/>
<circle cx="137.5" cy="37" r="14" fill="#1A78E6"/>
<circle cx="137.5" cy="37" r="7" fill="white"/>
<path d="M56 48H48V60C48 64.4183 51.5817 68 56 68V68V48Z" fill="#1A78E6"/>
<path d="M67.5 68V60H48.5V60C48.5 64.4183 52.0817 68 56.5 68H67.5Z" fill="#1A78E6"/>
<circle cx="14" cy="14" r="14" transform="matrix(-1 0 0 1 66 23)" fill="#1A78E6"/>
<circle cx="7" cy="7" r="7" transform="matrix(-1 0 0 1 59 30)" fill="white"/>
<path d="M56 116H48V104C48 99.5817 51.5817 96 56 96V96V116Z" fill="#1A78E6"/>
<path d="M67.5 96V104H48.5V104C48.5 99.5817 52.0817 96 56.5 96H67.5Z" fill="#1A78E6"/>
<circle cx="52" cy="127" r="14" transform="rotate(180 52 127)" fill="#1A78E6"/>
<circle cx="52" cy="127" r="7" transform="rotate(180 52 127)" fill="white"/>
<path d="M133.5 116H141.5V104C141.5 99.5817 137.918 96 133.5 96V96V116Z" fill="#1A78E6"/>
<path d="M122 96V104H141V104C141 99.5817 137.418 96 133 96H122Z" fill="#1A78E6"/>
<circle cx="14" cy="14" r="14" transform="matrix(1 0 0 -1 123.5 141)" fill="#1A78E6"/>
<circle cx="7" cy="7" r="7" transform="matrix(1 0 0 -1 130.5 134)" fill="white"/>
<rect x="150" y="77.5" width="9" height="25" transform="rotate(90 150 77.5)" fill="#1A78E6"/>
<circle cx="160" cy="82" r="14" transform="rotate(90 160 82)" fill="#1A78E6"/>
<circle cx="160" cy="82" r="7" transform="rotate(90 160 82)" fill="white"/>
<rect width="9" height="25" transform="matrix(0 1 1 0 40 77.5)" fill="#1A78E6"/>
<circle cx="14" cy="14" r="14" transform="matrix(0 1 1 0 16 68)" fill="#1A78E6"/>
<circle cx="7" cy="7" r="7" transform="matrix(0 1 1 0 23 75)" fill="white"/>
<rect x="84.6255" y="87.5731" width="30.4504" height="7.79453" rx="3.89726" transform="rotate(-40 84.6255 87.5731)" fill="white"/>
<rect x="82.0103" y="76.1897" width="17.3742" height="7.79453" rx="3.89726" transform="rotate(40 82.0103 76.1897)" fill="white"/>
<path d="M183.523 129V82.4545H194.773V101.136H213.114V82.4545H224.341V129H213.114V110.295H194.773V129H183.523ZM231.398 129V94.0909H242.511V129H231.398ZM236.966 90.0227C235.405 90.0227 234.064 89.5076 232.943 88.4773C231.822 87.4318 231.261 86.1742 231.261 84.7045C231.261 83.25 231.822 82.0076 232.943 80.9773C234.064 79.9318 235.405 79.4091 236.966 79.4091C238.542 79.4091 239.883 79.9318 240.989 80.9773C242.11 82.0076 242.67 83.25 242.67 84.7045C242.67 86.1742 242.11 87.4318 240.989 88.4773C239.883 89.5076 238.542 90.0227 236.966 90.0227ZM291.028 129.659C287.377 129.659 284.225 128.939 281.574 127.5C278.938 126.045 276.907 123.977 275.483 121.295C274.074 118.598 273.369 115.394 273.369 111.682C273.369 108.076 274.081 104.924 275.506 102.227C276.93 99.5152 278.938 97.4091 281.528 95.9091C284.119 94.3939 287.172 93.6364 290.688 93.6364C293.172 93.6364 295.445 94.0227 297.506 94.7955C299.566 95.5682 301.347 96.7121 302.847 98.2273C304.347 99.7424 305.513 101.614 306.347 103.841C307.18 106.053 307.597 108.591 307.597 111.455V114.227H277.256V107.773H297.256C297.241 106.591 296.96 105.538 296.415 104.614C295.869 103.689 295.119 102.97 294.165 102.455C293.225 101.924 292.142 101.659 290.915 101.659C289.672 101.659 288.559 101.939 287.574 102.5C286.589 103.045 285.809 103.795 285.233 104.75C284.657 105.689 284.354 106.758 284.324 107.955V114.523C284.324 115.947 284.604 117.197 285.165 118.273C285.725 119.333 286.521 120.159 287.551 120.75C288.581 121.341 289.809 121.636 291.233 121.636C292.218 121.636 293.112 121.5 293.915 121.227C294.718 120.955 295.407 120.553 295.983 120.023C296.559 119.492 296.991 118.841 297.278 118.068L307.483 118.364C307.059 120.652 306.127 122.644 304.688 124.341C303.263 126.023 301.392 127.333 299.074 128.273C296.756 129.197 294.074 129.659 291.028 129.659ZM326.023 129.5C323.447 129.5 321.106 128.833 319 127.5C316.894 126.167 315.212 124.167 313.955 121.5C312.697 118.833 312.068 115.523 312.068 111.568C312.068 107.462 312.72 104.083 314.023 101.432C315.326 98.7803 317.03 96.8182 319.136 95.5455C321.258 94.2727 323.538 93.6364 325.977 93.6364C327.811 93.6364 329.379 93.9545 330.682 94.5909C331.985 95.2121 333.061 96.0152 333.909 97C334.758 97.9848 335.402 99.0076 335.841 100.068H336.068V82.4545H347.182V129H336.182V123.341H335.841C335.371 124.417 334.705 125.424 333.841 126.364C332.977 127.303 331.894 128.061 330.591 128.636C329.303 129.212 327.78 129.5 326.023 129.5ZM329.886 120.841C331.235 120.841 332.386 120.462 333.341 119.705C334.295 118.932 335.03 117.848 335.545 116.455C336.061 115.061 336.318 113.424 336.318 111.545C336.318 109.636 336.061 107.992 335.545 106.614C335.045 105.235 334.311 104.174 333.341 103.432C332.386 102.689 331.235 102.318 329.886 102.318C328.508 102.318 327.341 102.697 326.386 103.455C325.432 104.212 324.705 105.28 324.205 106.659C323.72 108.038 323.477 109.667 323.477 111.545C323.477 113.424 323.727 115.061 324.227 116.455C324.727 117.848 325.447 118.932 326.386 119.705C327.341 120.462 328.508 120.841 329.886 120.841Z" fill="black"/>
<path d="M249.585 129V94.0909H260.381V100.455H260.744C261.381 98.1515 262.419 96.4394 263.858 95.3182C265.297 94.1818 266.972 93.6136 268.881 93.6136C269.396 93.6136 269.926 93.6515 270.472 93.7273C271.017 93.7879 271.525 93.8864 271.994 94.0227V103.682C271.464 103.5 270.767 103.356 269.903 103.25C269.055 103.144 268.297 103.091 267.631 103.091C266.313 103.091 265.123 103.386 264.062 103.977C263.017 104.553 262.191 105.364 261.585 106.409C260.994 107.439 260.699 108.652 260.699 110.045V129H249.585Z" fill="white"/>
<rect x="249.4" y="94.1" width="11.1" height="34.9" fill="black"/>
<path d="M194.591 79H182.5L198.205 32.4545H213.182L228.886 79H216.795L205.864 44.1818H205.5L194.591 79ZM192.977 60.6818H218.25V69.2273H192.977V60.6818Z" fill="white"/>
<path d="M263.312 54.75L253.108 55.0227C253.002 54.2955 252.714 53.6515 252.244 53.0909C251.775 52.5152 251.161 52.0682 250.403 51.75C249.661 51.4167 248.797 51.25 247.812 51.25C246.525 51.25 245.426 51.5076 244.517 52.0227C243.623 52.5379 243.184 53.2348 243.199 54.1136C243.184 54.7955 243.456 55.3864 244.017 55.8864C244.593 56.3864 245.616 56.7879 247.085 57.0909L253.812 58.3636C257.297 59.0303 259.888 60.1364 261.585 61.6818C263.297 63.2273 264.161 65.2727 264.176 67.8182C264.161 70.2121 263.449 72.2955 262.04 74.0682C260.646 75.8409 258.737 77.2197 256.312 78.2045C253.888 79.1742 251.116 79.6591 247.994 79.6591C243.009 79.6591 239.078 78.6364 236.199 76.5909C233.335 74.5303 231.699 71.7727 231.29 68.3182L242.267 68.0455C242.509 69.3182 243.138 70.2879 244.153 70.9545C245.169 71.6212 246.464 71.9545 248.04 71.9545C249.464 71.9545 250.623 71.6894 251.517 71.1591C252.411 70.6288 252.866 69.9242 252.881 69.0455C252.866 68.2576 252.517 67.6288 251.835 67.1591C251.153 66.6742 250.085 66.2955 248.631 66.0227L242.54 64.8636C239.04 64.2273 236.434 63.053 234.722 61.3409C233.009 59.6136 232.161 57.4167 232.176 54.75C232.161 52.4167 232.782 50.4242 234.04 48.7727C235.297 47.1061 237.085 45.8333 239.403 44.9545C241.722 44.0758 244.456 43.6364 247.608 43.6364C252.335 43.6364 256.063 44.6288 258.79 46.6136C261.517 48.5833 263.025 51.2955 263.312 54.75ZM276.443 92.0909C275.11 92.0909 273.852 91.9848 272.67 91.7727C271.489 91.5758 270.473 91.3106 269.625 90.9773L272.08 82.9091C273.17 83.2727 274.155 83.4848 275.034 83.5455C275.928 83.6061 276.693 83.4621 277.33 83.1136C277.981 82.7803 278.481 82.1818 278.83 81.3182L279.261 80.2727L266.852 44.0909H278.489L284.92 69H285.284L291.807 44.0909H303.511L290.352 82.3409C289.716 84.25 288.814 85.9318 287.648 87.3864C286.496 88.8561 285.004 90.0076 283.17 90.8409C281.352 91.6742 279.11 92.0909 276.443 92.0909ZM318.886 59.0909V79H307.773V44.0909H318.341V50.5H318.727C319.5 48.3636 320.818 46.6894 322.682 45.4773C324.545 44.25 326.765 43.6364 329.341 43.6364C331.795 43.6364 333.924 44.1894 335.727 45.2955C337.545 46.3864 338.955 47.9167 339.955 49.8864C340.97 51.8409 341.47 54.1288 341.455 56.75V79H330.341V58.9318C330.356 56.9924 329.864 55.4773 328.864 54.3864C327.879 53.2955 326.508 52.75 324.75 52.75C323.583 52.75 322.553 53.0076 321.659 53.5227C320.78 54.0227 320.098 54.7424 319.614 55.6818C319.144 56.6212 318.902 57.7576 318.886 59.0909ZM364.631 79.6591C360.949 79.6591 357.79 78.9015 355.153 77.3864C352.532 75.8712 350.517 73.7652 349.108 71.0682C347.699 68.3561 346.994 65.2197 346.994 61.6591C346.994 58.0833 347.699 54.947 349.108 52.25C350.532 49.5379 352.555 47.4242 355.176 45.9091C357.813 44.3939 360.956 43.6364 364.608 43.6364C367.835 43.6364 370.646 44.2197 373.04 45.3864C375.449 46.553 377.328 48.2045 378.676 50.3409C380.04 52.4621 380.759 54.9545 380.835 57.8182H370.449C370.237 56.0303 369.631 54.6288 368.631 53.6136C367.646 52.5985 366.358 52.0909 364.767 52.0909C363.479 52.0909 362.35 52.4545 361.381 53.1818C360.411 53.8939 359.653 54.9545 359.108 56.3636C358.578 57.7576 358.312 59.4848 358.312 61.5455C358.312 63.6061 358.578 65.3485 359.108 66.7727C359.653 68.1818 360.411 69.25 361.381 69.9773C362.35 70.6894 363.479 71.0455 364.767 71.0455C365.797 71.0455 366.706 70.8258 367.494 70.3864C368.297 69.947 368.956 69.303 369.472 68.4545C369.987 67.5909 370.312 66.5455 370.449 65.3182H380.835C380.729 68.197 380.009 70.7121 378.676 72.8636C377.358 75.0152 375.502 76.6894 373.108 77.8864C370.729 79.0682 367.903 79.6591 364.631 79.6591Z" fill="black"/>
<circle cx="205.7" cy="68.5" r="6.5" fill="#1A78E6"/>
<rect width="11.5" height="57.2738" transform="matrix(0.948324 0.317305 0.317305 -0.948324 182.2 79.3141)" fill="black"/>
<rect width="11.5" height="57.2738" transform="matrix(0.948324 -0.317305 -0.317305 -0.948324 218.2 82.963)" fill="black"/>
<rect x="197" y="24" width="17" height="8" fill="white"/>
<rect x="182" y="79" width="48" height="4" fill="white"/>
<circle cx="237.5" cy="85.5" r="6.5" fill="#1A78E6"/>
<circle cx="267.5" cy="100.5" r="6.5" fill="#1A78E6"/>
</svg>
