<svg id="Layer_1" enable-background="new 0 0 64 64" height="512" viewBox="0 0 64 64" width="512" xmlns="http://www.w3.org/2000/svg">
    <g fill="#FFFFFF">
        <path d="m38 46h-12c-1.104 0-2-.896-2-2s.896-2 2-2h12c1.104 0 2 .896 2 2s-.896 2-2 2z"/>
        <path d="m34 26h-16c-1.104 0-2-.896-2-2s.896-2 2-2h16c1.104 0 2 .896 2 2s-.896 2-2 2z"/>
        <path d="m34 26c-1.104 0-2-.896-2-2v-16c0-1.104.896-2 2-2s2 .896 2 2v16c0 1.104-.896 2-2 2z"/>
        <path d="m18 26c-1.104 0-2-.896-2-2v-16c0-1.104.896-2 2-2s2 .896 2 2v16c0 1.104-.896 2-2 2z"/>
        <path d="m42 10h-30c-1.104 0-2-.896-2-2s.896-2 2-2h30c1.104 0 2 .896 2 2s-.896 2-2 2z"/>
        <path d="m9.999 12c-1.105 0-1.999-.896-1.999-2 0-2.206 1.794-4 4-4 1.104 0 2 .896 2 2s-.896 2-2 2h-.002c0 1.104-.894 2-1.999 2z"/>
        <path d="m52 58h-40c-1.104 0-2-.896-2-2s.896-2 2-2h40c1.104 0 2 .896 2 2s-.896 2-2 2z"/>
        <path d="m12 58c-2.206 0-4-1.794-4-4 0-1.104.896-2 2-2s2 .896 2 2v.003c1.104 0 2 .894 2 1.998s-.896 1.999-2 1.999z"/>
        <path d="m46 38h-28c-1.104 0-2-.896-2-2s.896-2 2-2h28c1.104 0 2 .896 2 2s-.896 2-2 2z"/>
        <path d="m18 58c-1.104 0-2-.896-2-2v-20c0-1.104.896-2 2-2s2 .896 2 2v20c0 1.104-.896 2-2 2z"/>
        <path d="m10 56c-1.104 0-2-.896-2-2v-44c0-1.104.896-2 2-2s2 .896 2 2v44c0 1.104-.896 2-2 2z"/>
        <path d="m46 58c-1.104 0-2-.896-2-2v-20c0-1.104.896-2 2-2s2 .896 2 2v20c0 1.104-.896 2-2 2z"/>
        <path d="m52 58c-1.104 0-2-.896-2-2s.896-2 2-2h.002c0-1.104.894-2 1.999-2s1.999.896 1.999 2c0 2.206-1.794 4-4 4z"/>
        <path d="m54 56c-1.104 0-2-.896-2-2v-34c0-1.104.896-2 2-2s2 .896 2 2v34c0 1.104-.896 2-2 2z"/>
        <path d="m54 22c-.512 0-1.024-.195-1.414-.586l-12-12c-.781-.781-.781-2.047 0-2.828.78-.781 2.048-.781 2.828 0l12 12c.781.781.781 2.047 0 2.828-.39.391-.902.586-1.414.586z"/>
    </g>
</svg>
