<svg id="Layer_1" enable-background="new 0 0 64 64" height="512" viewBox="0 0 64 64" width="512" xmlns="http://www.w3.org/2000/svg"><g><g id="ARC_151_"><g><path d="m10 33c-2.206 0-4-1.794-4-4 0-1.104.896-2 2-2s2 .896 2 2v.002c1.104 0 2 .894 2 1.999s-.896 1.999-2 1.999z"/></g></g><g id="ARC_150_"><g><path d="m7.999 21c-1.105 0-1.999-.896-1.999-2 0-2.206 1.794-4 4-4 1.104 0 2 .896 2 2s-.896 2-2 2h-.002c0 1.104-.894 2-1.999 2z"/></g></g><g id="ARC_149_"><g><path d="m56 21c-1.104 0-2-.896-2-2v-.002c-1.104 0-2-.894-2-1.999s.896-1.999 2-1.999c2.206 0 4 1.794 4 4 0 1.104-.896 2-2 2z"/></g></g><g id="LINE_237_"><g><path d="m38 41h-12c-1.104 0-2-.896-2-2s.896-2 2-2h12c1.104 0 2 .896 2 2s-.896 2-2 2z"/></g></g><g id="ARC_148_"><g><path d="m12 55c-2.206 0-4-1.794-4-4 0-1.104.896-2 2-2s2 .896 2 2v.002c1.104 0 2 .894 2 1.999s-.896 1.999-2 1.999z"/></g></g><g id="ARC_147_"><g><path d="m52 55c-1.104 0-2-.896-2-2s.896-2 2-2h.002c0-1.104.894-2 1.999-2s1.999.896 1.999 2c0 2.206-1.794 4-4 4z"/></g></g><g id="LINE_107_"><g><path d="m54 33h-44c-1.104 0-2-.896-2-2s.896-2 2-2h44c1.104 0 2 .896 2 2s-.896 2-2 2z"/></g></g><g id="LINE_108_"><g><path d="m8 31c-1.104 0-2-.896-2-2v-10c0-1.104.896-2 2-2s2 .896 2 2v10c0 1.104-.896 2-2 2z"/></g></g><g id="LINE_109_"><g><path d="m54 19h-44c-1.104 0-2-.896-2-2s.896-2 2-2h44c1.104 0 2 .896 2 2s-.896 2-2 2z"/></g></g><g id="LINE_110_"><g><path d="m56 31c-1.104 0-2-.896-2-2v-10c0-1.104.896-2 2-2s2 .896 2 2v10c0 1.104-.896 2-2 2z"/></g></g><g id="LINE_111_"><g><path d="m26 41c-1.104 0-2-.896-2-2v-8c0-1.104.896-2 2-2s2 .896 2 2v8c0 1.104-.896 2-2 2z"/></g></g><g id="LINE_113_"><g><path d="m38 41c-1.104 0-2-.896-2-2v-8c0-1.104.896-2 2-2s2 .896 2 2v8c0 1.104-.896 2-2 2z"/></g></g><g id="LINE_114_"><g><path d="m10 53c-1.104 0-2-.896-2-2v-20c0-1.104.896-2 2-2s2 .896 2 2v20c0 1.104-.896 2-2 2z"/></g></g><g id="LINE_115_"><g><path d="m52 55h-40c-1.104 0-2-.896-2-2s.896-2 2-2h40c1.104 0 2 .896 2 2s-.896 2-2 2z"/></g></g><g id="LINE_116_"><g><path d="m54 53c-1.104 0-2-.896-2-2v-20c0-1.104.896-2 2-2s2 .896 2 2v20c0 1.104-.896 2-2 2z"/></g></g><g id="ARC_51_"><g><path d="m54 33c-1.104 0-2-.896-2-2s.896-2 2-2h.002c0-1.104.894-2 1.999-2s1.999.896 1.999 2c0 2.206-1.794 4-4 4z"/></g></g><g id="LINE_117_"><g><path d="m42 19c-1.104 0-2-.896-2-2v-2c0-1.104.896-2 2-2s2 .896 2 2v2c0 1.104-.896 2-2 2z"/></g></g><g id="ARC_52_"><g><path d="m42 17c-1.104 0-2-.896-2-2 0-1.103-.897-2-2-2-1.104 0-2-.896-2-2s.896-2 2-2c3.309 0 6 2.691 6 6 0 1.104-.896 2-2 2z"/></g></g><g id="LINE_118_"><g><path d="m38 13h-12c-1.104 0-2-.896-2-2s.896-2 2-2h12c1.104 0 2 .896 2 2s-.896 2-2 2z"/></g></g><g id="LINE_119_"><g><path d="m22 19c-1.104 0-2-.896-2-2v-2c0-1.104.896-2 2-2s2 .896 2 2v2c0 1.104-.896 2-2 2z"/></g></g><g id="ARC_53_"><g><path d="m22 17c-1.104 0-2-.896-2-2 0-3.309 2.691-6 6-6 1.104 0 2 .896 2 2s-.896 2-2 2c-1.103 0-2 .897-2 2 0 1.104-.896 2-2 2z"/></g></g></g></svg>