<svg id="Layer_1" enable-background="new 0 0 64 64" height="512" viewBox="0 0 64 64" width="512" xmlns="http://www.w3.org/2000/svg"><g><path d="m44 48.5c-1.104 0-2-.896-2-2v-19c0-1.104.896-2 2-2s2 .896 2 2v19c0 1.104-.896 2-2 2z"/></g><g><path d="m44 56.5c-3.309 0-6-2.691-6-6s2.691-6 6-6 6 2.691 6 6-2.691 6-6 6zm0-8c-1.084 0-2 .916-2 2s.916 2 2 2 2-.916 2-2-.916-2-2-2z"/></g><g><path d="m26.632 44.816c-.3 0-.605-.067-.893-.211l-11.423-5.711c-.988-.494-1.389-1.695-.895-2.684.494-.986 1.694-1.389 2.684-.895l11.423 5.711c.988.494 1.389 1.695.895 2.684-.351.701-1.057 1.106-1.791 1.106z"/></g><g><path d="m32 46.076c-2.15 0-4.301-.49-6.261-1.471-.988-.494-1.389-1.695-.895-2.684.494-.987 1.692-1.39 2.684-.895 2.801 1.4 6.143 1.4 8.943 0 .99-.495 2.19-.093 2.684.895s.094 2.189-.895 2.684c-1.959.981-4.11 1.471-6.26 1.471z"/></g><g><path d="m32.002 35.5c-.734 0-1.44-.404-1.791-1.105-.494-.988-.094-2.189.895-2.684l24-12c.99-.494 2.189-.093 2.684.895.494.988.094 2.189-.895 2.684l-24 12c-.288.143-.593.21-.893.21z"/></g><g><path d="m55.998 23.5c-.3 0-.605-.067-.893-.211l-24-12c-.988-.494-1.389-1.695-.895-2.684.494-.987 1.692-1.39 2.684-.895l24 12c.988.494 1.389 1.695.895 2.684-.351.702-1.057 1.106-1.791 1.106z"/></g><g><path d="m43.998 29.5c-.3 0-.605-.067-.893-.211l-12-6c-.988-.494-1.389-1.695-.895-2.684.494-.987 1.692-1.389 2.684-.895l12 6c.988.494 1.389 1.695.895 2.684-.351.702-1.057 1.106-1.791 1.106z"/></g><g><path d="m15.209 39.105c-.301 0-.605-.067-.893-.211-2.045-1.023-3.316-3.08-3.316-5.366 0-1.104.896-2 2-2s2 .896 2 2c0 .762.424 1.447 1.105 1.788.989.496 1.389 1.697.895 2.684-.351.701-1.058 1.105-1.791 1.105z"/></g><g><path d="m13 35.528c-1.104 0-2-.896-2-2v-9.528c0-1.104.896-2 2-2s2 .896 2 2v9.528c0 1.105-.896 2-2 2z"/></g><g><path d="m48.791 39.105c-.733 0-1.44-.404-1.791-1.105-.494-.987-.094-2.188.895-2.684.681-.34 1.105-1.026 1.105-1.788 0-1.104.896-2 2-2s2 .896 2 2c0 2.286-1.271 4.343-3.316 5.366-.288.144-.592.211-.893.211z"/></g><g><path d="m51 35.528c-1.104 0-2-.896-2-2v-9.528c0-1.104.896-2 2-2s2 .896 2 2v9.528c0 1.105-.896 2-2 2z"/></g><g><path d="m37.368 44.816c-.734 0-1.44-.404-1.791-1.105-.494-.988-.094-2.189.895-2.684l11.423-5.711c.99-.494 2.19-.093 2.684.895s.094 2.189-.895 2.684l-11.423 5.711c-.287.143-.593.21-.893.21z"/></g><g><path d="m8.002 23.5c-.734 0-1.44-.404-1.791-1.105-.494-.988-.094-2.189.895-2.684l24-12c.99-.495 2.19-.093 2.684.895s.094 2.189-.895 2.684l-24 12c-.288.143-.593.21-.893.21z"/></g><g><path d="m31.998 35.5c-.3 0-.605-.067-.893-.211l-24-12c-.988-.494-1.389-1.695-.895-2.684.494-.987 1.692-1.389 2.684-.895l24 12c.988.494 1.389 1.695.895 2.684-.351.702-1.057 1.106-1.791 1.106z"/></g></svg>