<svg id="Layer_1" enable-background="new 0 0 64 64" height="512" viewBox="0 0 64 64" width="512" xmlns="http://www.w3.org/2000/svg"><g><path d="m32.471 37.354c-.001 0 0 0 0 0-.331 0-.663-.016-.997-.048-5.672-.541-9.993-5.618-9.631-11.317.357-5.603 5.043-9.992 10.668-9.992.111 0 .223.002.334.005 5.698.181 10.334 4.968 10.334 10.673 0 .455-.029.914-.086 1.363-.679 5.311-5.245 9.316-10.622 9.316zm.04-17.356c-3.462 0-6.457 2.802-6.676 6.246-.227 3.566 2.474 6.743 6.02 7.082 3.571.34 6.828-2.329 7.27-5.793.036-.282.055-.57.055-.856 0-3.567-2.898-6.562-6.461-6.675z"/></g><g><path d="m51.179 28.676c-1.104 0-2-.896-2-2 0-8.205-6.109-15.298-14.211-16.498-8.147-1.207-16.072 3.815-18.44 11.68-.469 1.555-.706 3.176-.706 4.818 0 1.104-.896 2-2 2s-2-.896-2-2c0-2.033.295-4.042.876-5.972 2.937-9.751 12.764-15.974 22.856-14.483 10.048 1.489 17.625 10.282 17.625 20.455 0 1.105-.896 2-2 2z"/></g><g><path d="m33.174 57.584c-.312 0-.628-.073-.924-.228-.979-.512-1.358-1.72-.847-2.699 2.191-4.197 5.297-7.653 8.3-10.996 2.641-2.938 5.134-5.714 7.045-8.941 1.568-2.648 2.386-5.366 2.431-8.078.019-1.093.91-1.967 1.999-1.967h.034c1.104.018 1.984.928 1.967 2.033-.057 3.415-1.063 6.796-2.989 10.049-2.112 3.567-4.856 6.622-7.511 9.576-2.968 3.304-5.771 6.425-7.73 10.174-.357.686-1.053 1.077-1.775 1.077z"/></g><g><path d="m31.826 57.584c-.722 0-1.418-.391-1.774-1.075-1.959-3.75-4.763-6.871-7.73-10.174-2.654-2.954-5.398-6.009-7.511-9.576-1.927-3.253-2.933-6.635-2.989-10.049-.018-1.104.862-2.015 1.967-2.033h.034c1.089 0 1.98.874 1.999 1.967.045 2.711.862 5.429 2.431 8.078 1.911 3.227 4.404 6.002 7.045 8.941 3.003 3.343 6.108 6.799 8.3 10.996.512.979.133 2.187-.847 2.699-.297.153-.613.226-.925.226z"/></g><g><path d="m32.499 57.99s-.001 0-.002 0c-1.042-.001-1.982-.575-2.454-1.497-.502-.983-.112-2.188.871-2.691.514-.261 1.086-.281 1.586-.101.501-.18 1.075-.16 1.588.103.983.504 1.371 1.709.867 2.692-.472.921-1.413 1.494-2.456 1.494z"/></g></svg>