<svg id="Layer_1" enable-background="new 0 0 64 64" height="512" viewBox="0 0 64 64" width="512" xmlns="http://www.w3.org/2000/svg"><g><g id="LINE_21_"><g><path d="m32 22.007c-1.104 0-2-.896-2-2v-4c0-1.104.896-2 2-2s2 .896 2 2v4c0 1.104-.896 2-2 2z"/></g></g><g id="LINE_22_"><g><path d="m32 50.007c-1.104 0-2-.896-2-2v-4c0-1.104.896-2 2-2s2 .896 2 2v4c0 1.104-.896 2-2 2z"/></g></g><g id="ARC_10_"><g><path d="m28 46.007c-3.309 0-6-2.691-6-6 0-1.104.896-2 2-2s2 .896 2 2c0 1.103.897 2 2 2 1.104 0 2 .896 2 2s-.896 2-2 2z"/></g></g><g id="LINE_23_"><g><path d="m36 46.007h-8c-1.104 0-2-.896-2-2s.896-2 2-2h8c1.104 0 2 .896 2 2s-.896 2-2 2z"/></g></g><g id="ARC_11_"><g><path d="m40 26.007c-1.104 0-2-.896-2-2 0-1.103-.897-2-2-2-1.104 0-2-.896-2-2s.896-2 2-2c3.309 0 6 2.691 6 6 0 1.104-.896 2-2 2z"/></g></g><g id="LINE_24_"><g><path d="m36 22.007h-8c-1.104 0-2-.896-2-2s.896-2 2-2h8c1.104 0 2 .896 2 2s-.896 2-2 2z"/></g></g><g id="ARC_12_"><g><path d="m24 26.007c-1.104 0-2-.896-2-2 0-3.309 2.691-6 6-6 1.104 0 2 .896 2 2s-.896 2-2 2c-1.103 0-2 .897-2 2 0 1.104-.896 2-2 2z"/></g></g><g id="LINE_25_"><g><path d="m24 30.007c-1.104 0-2-.896-2-2v-4c0-1.104.896-2 2-2s2 .896 2 2v4c0 1.104-.896 2-2 2z"/></g></g><g id="ARC_13_"><g><path d="m28 34.007c-3.309 0-6-2.691-6-6 0-1.104.896-2 2-2s2 .896 2 2c0 1.103.897 2 2 2 1.104 0 2 .896 2 2s-.896 2-2 2z"/></g></g><g id="LINE_26_"><g><path d="m36 34.007h-8c-1.104 0-2-.896-2-2s.896-2 2-2h8c1.104 0 2 .896 2 2s-.896 2-2 2z"/></g></g><g id="ARC_14_"><g><path d="m36 46.007c-1.104 0-2-.896-2-2s.896-2 2-2c1.103 0 2-.897 2-2 0-1.104.896-2 2-2s2 .896 2 2c0 3.308-2.691 6-6 6z"/></g></g><g id="LINE_27_"><g><path d="m40 42.007c-1.104 0-2-.896-2-2v-4c0-1.104.896-2 2-2s2 .896 2 2v4c0 1.104-.896 2-2 2z"/></g></g><g id="ARC_15_"><g><path d="m40 38.007c-1.104 0-2-.896-2-2 0-1.103-.897-2-2-2-1.104 0-2-.896-2-2s.896-2 2-2c3.309 0 6 2.691 6 6 0 1.104-.896 2-2 2z"/></g></g><g id="CIRCLE"><g><path d="m31.934 57.997c-.001 0-.001 0-.002 0-2.273 0-4.528-.296-6.701-.881-9.364-2.519-16.697-10.276-18.681-19.763-2.02-9.665 1.711-19.825 9.505-25.884 4.507-3.503 10.19-5.433 16.004-5.433 4.025 0 8.022.936 11.56 2.705 8.735 4.371 14.381 13.503 14.381 23.266 0 7.966-3.759 15.644-10.055 20.538-4.522 3.516-10.21 5.452-16.011 5.452zm.125-47.961c-4.929 0-9.741 1.63-13.549 4.591-6.597 5.127-9.754 13.727-8.044 21.907 1.678 8.025 7.882 14.588 15.804 16.719 1.834.493 3.739.744 5.663.744h.001c4.918 0 9.732-1.637 13.557-4.61 5.328-4.142 8.51-10.64 8.51-17.38 0-8.261-4.777-15.989-12.171-19.688-2.985-1.493-6.364-2.283-9.771-2.283z"/></g></g></g></svg>